<svg width="91" height="26" viewBox="0 0 91 26" fill="none" xmlns="http://www.w3.org/2000/svg">
<path d="M0.32 19V18.208C0.928 18.176 1.344 18.04 1.568 17.8C1.792 17.544 1.912 17.2 1.928 16.768C1.96 16.32 1.976 15.816 1.976 15.256V4.888C1.976 4.568 1.984 4.264 2 3.976C2.016 3.672 2.032 3.4 2.048 3.16C1.76 3.176 1.472 3.192 1.184 3.208C0.896 3.224 0.608 3.24 0.32 3.256V2.2H5.72V2.992C5.128 3.008 4.712 3.144 4.472 3.4C4.248 3.656 4.12 4 4.088 4.432C4.072 4.864 4.064 5.368 4.064 5.944V16.24C4.064 16.672 4.056 17.04 4.04 17.344C4.04 17.648 4.024 17.904 3.992 18.112L8.48 18.04C9.488 18.024 10.248 17.704 10.76 17.08C11.288 16.456 11.552 15.44 11.552 14.032H12.368L12.224 19H0.32ZM19.739 19.384C18.635 19.384 17.635 19.128 16.739 18.616C15.859 18.088 15.163 17.352 14.651 16.408C14.139 15.448 13.883 14.32 13.883 13.024C13.883 11.904 14.131 10.856 14.627 9.88C15.139 8.904 15.851 8.12 16.763 7.528C17.675 6.92 18.731 6.616 19.931 6.616C20.603 6.616 21.227 6.728 21.803 6.952C22.395 7.16 22.915 7.488 23.363 7.936C23.811 8.368 24.163 8.92 24.419 9.592C24.675 10.248 24.803 11.024 24.803 11.92L16.355 12.064C16.355 13.28 16.483 14.352 16.739 15.28C17.011 16.192 17.443 16.904 18.035 17.416C18.627 17.912 19.387 18.16 20.315 18.16C20.811 18.16 21.315 18.072 21.827 17.896C22.355 17.72 22.843 17.48 23.291 17.176C23.739 16.872 24.099 16.536 24.371 16.168L24.947 16.648C24.515 17.32 23.995 17.856 23.387 18.256C22.779 18.656 22.155 18.944 21.515 19.12C20.875 19.296 20.283 19.384 19.739 19.384ZM16.427 11.056H22.547C22.547 10.48 22.459 9.928 22.283 9.4C22.123 8.856 21.851 8.416 21.467 8.08C21.083 7.728 20.579 7.552 19.955 7.552C19.027 7.552 18.251 7.832 17.627 8.392C17.019 8.936 16.619 9.824 16.427 11.056ZM31.2868 19.384C30.9188 19.384 30.5428 19.328 30.1588 19.216C29.7748 19.12 29.4148 18.92 29.0788 18.616C28.7588 18.312 28.5028 17.872 28.3108 17.296C28.1188 16.704 28.0228 15.928 28.0228 14.968L28.0708 8.008L26.2228 8.032V7C26.6388 6.984 27.0628 6.832 27.4948 6.544C27.9268 6.24 28.3108 5.832 28.6468 5.32C28.9988 4.808 29.2388 4.248 29.3668 3.64H30.1828V7H34.2148V7.936L30.1828 7.984L30.1348 14.656C30.1348 15.376 30.1908 15.992 30.3028 16.504C30.4308 17 30.6308 17.376 30.9028 17.632C31.1748 17.888 31.5268 18.016 31.9588 18.016C32.4068 18.016 32.8228 17.888 33.2068 17.632C33.6068 17.376 33.9588 17.024 34.2628 16.576L34.9108 17.104C34.5588 17.632 34.2068 18.048 33.8548 18.352C33.5188 18.656 33.1908 18.88 32.8708 19.024C32.5508 19.184 32.2548 19.28 31.9828 19.312C31.7108 19.36 31.4788 19.384 31.2868 19.384ZM40.8024 19.384C40.4344 19.384 40.0584 19.328 39.6744 19.216C39.2904 19.12 38.9304 18.92 38.5944 18.616C38.2744 18.312 38.0184 17.872 37.8264 17.296C37.6344 16.704 37.5384 15.928 37.5384 14.968L37.5864 8.008L35.7384 8.032V7C36.1544 6.984 36.5784 6.832 37.0104 6.544C37.4424 6.24 37.8264 5.832 38.1624 5.32C38.5144 4.808 38.7544 4.248 38.8824 3.64H39.6984V7H43.7304V7.936L39.6984 7.984L39.6504 14.656C39.6504 15.376 39.7064 15.992 39.8184 16.504C39.9464 17 40.1464 17.376 40.4184 17.632C40.6904 17.888 41.0424 18.016 41.4744 18.016C41.9224 18.016 42.3384 17.888 42.7224 17.632C43.1224 17.376 43.4744 17.024 43.7784 16.576L44.4264 17.104C44.0744 17.632 43.7224 18.048 43.3704 18.352C43.0344 18.656 42.7064 18.88 42.3864 19.024C42.0664 19.184 41.7704 19.28 41.4984 19.312C41.2264 19.36 40.9944 19.384 40.8024 19.384ZM51.3796 19.384C50.2756 19.384 49.2756 19.128 48.3796 18.616C47.4996 18.088 46.8036 17.352 46.2916 16.408C45.7796 15.448 45.5236 14.32 45.5236 13.024C45.5236 11.904 45.7716 10.856 46.2676 9.88C46.7796 8.904 47.4916 8.12 48.4036 7.528C49.3156 6.92 50.3716 6.616 51.5716 6.616C52.2436 6.616 52.8676 6.728 53.4436 6.952C54.0356 7.16 54.5556 7.488 55.0036 7.936C55.4516 8.368 55.8036 8.92 56.0596 9.592C56.3156 10.248 56.4436 11.024 56.4436 11.92L47.9956 12.064C47.9956 13.28 48.1236 14.352 48.3796 15.28C48.6516 16.192 49.0836 16.904 49.6756 17.416C50.2676 17.912 51.0276 18.16 51.9556 18.16C52.4516 18.16 52.9556 18.072 53.4676 17.896C53.9956 17.72 54.4836 17.48 54.9316 17.176C55.3796 16.872 55.7396 16.536 56.0116 16.168L56.5876 16.648C56.1556 17.32 55.6356 17.856 55.0276 18.256C54.4196 18.656 53.7956 18.944 53.1556 19.12C52.5156 19.296 51.9236 19.384 51.3796 19.384ZM48.0676 11.056H54.1876C54.1876 10.48 54.0996 9.928 53.9236 9.4C53.7636 8.856 53.4916 8.416 53.1076 8.08C52.7236 7.728 52.2196 7.552 51.5956 7.552C50.6676 7.552 49.8916 7.832 49.2676 8.392C48.6596 8.936 48.2596 9.824 48.0676 11.056ZM58.5794 18.28C59.0754 18.28 59.4194 18.16 59.6114 17.92C59.8034 17.664 59.9154 17.32 59.9474 16.888C59.9794 16.44 59.9954 15.928 59.9954 15.352V9.88C59.9954 9.624 59.9954 9.368 59.9954 9.112C60.0114 8.856 60.0434 8.592 60.0914 8.32C59.8034 8.336 59.5154 8.352 59.2274 8.368C58.9554 8.368 58.6754 8.376 58.3874 8.392V7.408H59.1314C59.8194 7.408 60.2914 7.344 60.5474 7.216C60.8194 7.072 61.0434 6.92 61.2194 6.76H61.9154C61.9474 7.016 61.9714 7.336 61.9874 7.72C62.0034 8.088 62.0194 8.56 62.0354 9.136C62.2754 8.736 62.6034 8.344 63.0194 7.96C63.4354 7.576 63.8994 7.256 64.4114 7C64.9394 6.744 65.4914 6.616 66.0674 6.616C66.5154 6.616 66.9074 6.736 67.2434 6.976C67.5794 7.216 67.7474 7.6 67.7474 8.128C67.7474 8.256 67.7074 8.416 67.6274 8.608C67.5474 8.784 67.4194 8.944 67.2434 9.088C67.0674 9.216 66.8354 9.28 66.5474 9.28C66.1954 9.264 65.9154 9.128 65.7074 8.872C65.4994 8.6 65.4194 8.288 65.4674 7.936C65.0674 7.92 64.6514 8.024 64.2194 8.248C63.8034 8.472 63.4114 8.784 63.0434 9.184C62.6754 9.568 62.3474 10.024 62.0594 10.552L62.0834 16.456C62.0834 16.776 62.0754 17.064 62.0594 17.32C62.0594 17.56 62.0354 17.816 61.9874 18.088C62.2434 18.072 62.4914 18.064 62.7314 18.064C62.9874 18.048 63.2434 18.032 63.4994 18.016V19H58.5794V18.28ZM68.6285 18.28C69.1245 18.28 69.4685 18.16 69.6605 17.92C69.8525 17.664 69.9645 17.32 69.9965 16.888C70.0285 16.44 70.0445 15.928 70.0445 15.352V4C70.0445 3.744 70.0445 3.504 70.0445 3.28C70.0605 3.04 70.0845 2.76 70.1165 2.44C69.8285 2.456 69.5405 2.472 69.2525 2.488C68.9805 2.504 68.7005 2.52 68.4125 2.536V1.528C69.1165 1.528 69.6605 1.496 70.0445 1.432C70.4445 1.368 70.7405 1.288 70.9325 1.192C71.1405 1.096 71.3005 0.991999 71.4125 0.879999H72.1085L72.1325 16.456C72.1325 16.776 72.1245 17.064 72.1085 17.32C72.0925 17.56 72.0605 17.816 72.0125 18.088C72.2685 18.072 72.5165 18.064 72.7565 18.064C73.0125 18.048 73.2685 18.032 73.5245 18.016V19H68.6285V18.28ZM77.1384 25.504C76.6424 25.504 76.2184 25.384 75.8664 25.144C75.5144 24.904 75.3384 24.536 75.3384 24.04C75.3384 23.752 75.4344 23.488 75.6264 23.248C75.8184 23.008 76.0664 22.888 76.3704 22.888C76.7544 22.872 77.0104 22.992 77.1384 23.248C77.2824 23.504 77.3544 23.728 77.3544 23.92C77.3544 23.968 77.3544 24.016 77.3544 24.064C77.3544 24.128 77.3464 24.192 77.3304 24.256C77.3784 24.288 77.4664 24.304 77.5944 24.304C77.7864 24.304 77.9944 24.224 78.2184 24.064C78.4424 23.904 78.6424 23.672 78.8184 23.368C79.0264 23.016 79.2664 22.488 79.5384 21.784C79.8264 21.08 80.1464 20.24 80.4984 19.264L76.7544 11.248C76.3384 10.352 76.0344 9.64 75.8424 9.112C75.6664 8.584 75.5464 8.192 75.4824 7.936L74.3304 7.984V7H79.2984V7.72H79.2024C78.5304 7.768 78.1624 8.024 78.0984 8.488C78.0344 8.936 78.2184 9.624 78.6504 10.552L81.4584 16.576C81.8264 15.552 82.1784 14.544 82.5144 13.552C82.8504 12.544 83.1864 11.544 83.5224 10.552C83.6504 10.2 83.7784 9.84 83.9064 9.472C84.0504 9.088 84.1864 8.752 84.3144 8.464C84.4584 8.16 84.5864 7.968 84.6984 7.888L83.0424 7.984V7H86.8104V7.72C86.2184 7.944 85.7704 8.32 85.4664 8.848C85.1784 9.36 84.8824 10.024 84.5784 10.84L81.5784 19.216C81.0984 20.56 80.6584 21.696 80.2584 22.624C79.8584 23.568 79.4184 24.28 78.9384 24.76C78.4584 25.256 77.8584 25.504 77.1384 25.504Z" fill="#363737"/>
<path d="M88.9514 19.384C88.5834 19.384 88.2554 19.24 87.9674 18.952C87.6954 18.648 87.5594 18.28 87.5594 17.848C87.5594 17.416 87.7034 17.048 87.9914 16.744C88.2794 16.44 88.6074 16.288 88.9754 16.288C89.3754 16.288 89.7034 16.44 89.9594 16.744C90.2314 17.048 90.3674 17.416 90.3674 17.848C90.3674 18.28 90.2234 18.648 89.9354 18.952C89.6474 19.24 89.3194 19.384 88.9514 19.384Z" fill="#8B0000"/>
</svg>
